{
    "accessors" : [
        {
            "bufferView" : 0,
            "componentType" : 5123,
            "count" : 15360,
            "max" : [
                2561
            ],
            "min" : [
                0
            ],
            "type" : "SCALAR"
        },
        {
            "bufferView" : 1,
            "componentType" : 5126,
            "count" : 2562,
            "max" : [
                1.0,
                1.0,
                0.9999999403953552
            ],
            "min" : [
                -0.9999999403953552,
                -1.0,
                -0.9999999403953552
            ],
            "type" : "VEC3"
        },
        {
            "bufferView" : 2,
            "componentType" : 5126,
            "count" : 2562,
            "max" : [
                0.999969482421875,
                0.999969482421875,
                1.0
            ],
            "min" : [
                -0.999969482421875,
                -0.999969482421875,
                -1.0
            ],
            "type" : "VEC3"
        },
        {
            "bufferView" : 3,
            "componentType" : 5121,
            "count" : 36,
            "max" : [
                23
            ],
            "min" : [
                0
            ],
            "type" : "SCALAR"
        },
        {
            "bufferView" : 4,
            "componentType" : 5126,
            "count" : 24,
            "max" : [
                1.5,
                0.02500000223517418,
                1.5
            ],
            "min" : [
                -1.5,
                -0.125,
                -1.5
            ],
            "type" : "VEC3"
        },
        {
            "bufferView" : 5,
            "componentType" : 5126,
            "count" : 24,
            "max" : [
                1.0,
                1.0,
                1.0
            ],
            "min" : [
                -1.0,
                -1.0,
                -1.0
            ],
            "type" : "VEC3"
        },
        {
            "bufferView" : 6,
            "componentType" : 5126,
            "count" : 5,
            "max" : [
                3.291666666666667
            ],
            "min" : [
                0.0
            ],
            "type" : "SCALAR"
        },
        {
            "bufferView" : 7,
            "componentType" : 5126,
            "count" : 15,
            "max" : [
                0.0,
                10.263578414916992,
                -0.0
            ],
            "min" : [
                0.0,
                -9.822519302368164,
                -0.0
            ],
            "type" : "VEC3"
        }
    ],
    "animations" : [
        {
            "channels" : [
                {
                    "sampler" : 0,
                    "target" : {
                        "node" : 1,
                        "path" : "translation"
                    }
                }
            ],
            "samplers" : [
                {
                    "input" : 6,
                    "interpolation" : "CUBICSPLINE",
                    "output" : 7
                }
            ]
        }
    ],
    "asset" : {
        "generator" : "Khronos Blender glTF 2.0 exporter",
        "version" : "2.0"
    },
    "bufferViews" : [
        {
            "buffer" : 0,
            "byteLength" : 30720,
            "byteOffset" : 0,
            "target" : 34963
        },
        {
            "buffer" : 0,
            "byteLength" : 30744,
            "byteOffset" : 30720,
            "target" : 34962
        },
        {
            "buffer" : 0,
            "byteLength" : 30744,
            "byteOffset" : 61464,
            "target" : 34962
        },
        {
            "buffer" : 0,
            "byteLength" : 36,
            "byteOffset" : 92208,
            "target" : 34963
        },
        {
            "buffer" : 0,
            "byteLength" : 288,
            "byteOffset" : 92244,
            "target" : 34962
        },
        {
            "buffer" : 0,
            "byteLength" : 288,
            "byteOffset" : 92532,
            "target" : 34962
        },
        {
            "buffer" : 0,
            "byteLength" : 20,
            "byteOffset" : 92820
        },
        {
            "buffer" : 0,
            "byteLength" : 180,
            "byteOffset" : 92840
        }
    ],
    "buffers" : [
        {
            "byteLength" : 93020,
            "uri" : "Bouncing.bin"
        }
    ],
    "materials" : [
        {
            "name" : "Floor",
            "pbrMetallicRoughness" : {
                "baseColorFactor" : [
                    0.24255798224446146,
                    0.13988667934964116,
                    0.08655237088430479,
                    1.0
                ],
                "metallicFactor" : 0.0
            }
        },
        {
            "name" : "Material",
            "pbrMetallicRoughness" : {
                "baseColorFactor" : [
                    0.19181039619163265,
                    0.3260712433766013,
                    0.640000066757203,
                    1.0
                ],
                "metallicFactor" : 0.0
            }
        }
    ],
    "meshes" : [
        {
            "name" : "Icosphere",
            "primitives" : [
                {
                    "attributes" : {
                        "NORMAL" : 2,
                        "POSITION" : 1
                    },
                    "indices" : 0,
                    "material" : 1
                }
            ]
        },
        {
            "name" : "Cube",
            "primitives" : [
                {
                    "attributes" : {
                        "NORMAL" : 5,
                        "POSITION" : 4
                    },
                    "indices" : 3,
                    "material" : 0
                }
            ]
        }
    ],
    "nodes" : [
        {
            "mesh" : 1,
            "name" : "Cube",
            "translation" : [
                0.0,
                -1.0,
                -0.0
            ]
        },
        {
            "mesh" : 0,
            "name" : "Icosphere",
            "translation" : [
                0.0,
                5.0,
                -0.0
            ]
        }
    ],
    "scene" : 0,
    "scenes" : [
        {
            "name" : "Scene",
            "nodes" : [
                0,
                1
            ]
        }
    ]
}
